%TF.GenerationSoftware,KiCad,Pcbnew,(6.0.2)*%
%TF.CreationDate,2022-06-14T20:32:41+02:00*%
%TF.ProjectId,SB-Spoko Bezpieczniki,53422d53-706f-46b6-9f20-42657a706965,rev?*%
%TF.SameCoordinates,Original*%
%TF.FileFunction,Paste,Bot*%
%TF.FilePolarity,Positive*%
%FSLAX46Y46*%
G04 Gerber Fmt 4.6, Leading zero omitted, Abs format (unit mm)*
G04 Created by KiCad (PCBNEW (6.0.2)) date 2022-06-14 20:32:41*
%MOMM*%
%LPD*%
G01*
G04 APERTURE LIST*
G04 Aperture macros list*
%AMRoundRect*
0 Rectangle with rounded corners*
0 $1 Rounding radius*
0 $2 $3 $4 $5 $6 $7 $8 $9 X,Y pos of 4 corners*
0 Add a 4 corners polygon primitive as box body*
4,1,4,$2,$3,$4,$5,$6,$7,$8,$9,$2,$3,0*
0 Add four circle primitives for the rounded corners*
1,1,$1+$1,$2,$3*
1,1,$1+$1,$4,$5*
1,1,$1+$1,$6,$7*
1,1,$1+$1,$8,$9*
0 Add four rect primitives between the rounded corners*
20,1,$1+$1,$2,$3,$4,$5,0*
20,1,$1+$1,$4,$5,$6,$7,0*
20,1,$1+$1,$6,$7,$8,$9,0*
20,1,$1+$1,$8,$9,$2,$3,0*%
G04 Aperture macros list end*
%ADD10RoundRect,0.225000X0.225000X0.250000X-0.225000X0.250000X-0.225000X-0.250000X0.225000X-0.250000X0*%
%ADD11RoundRect,0.225000X0.250000X-0.225000X0.250000X0.225000X-0.250000X0.225000X-0.250000X-0.225000X0*%
%ADD12RoundRect,0.225000X-0.250000X0.225000X-0.250000X-0.225000X0.250000X-0.225000X0.250000X0.225000X0*%
%ADD13RoundRect,0.200000X0.200000X0.275000X-0.200000X0.275000X-0.200000X-0.275000X0.200000X-0.275000X0*%
%ADD14R,0.300000X1.475000*%
%ADD15R,1.475000X0.300000*%
G04 APERTURE END LIST*
D10*
%TO.C,C11*%
X242745000Y-73350000D03*
X241195000Y-73350000D03*
%TD*%
%TO.C,C10*%
X237245000Y-88810000D03*
X235695000Y-88810000D03*
%TD*%
D11*
%TO.C,C12*%
X246320000Y-85325000D03*
X246320000Y-83775000D03*
%TD*%
D12*
%TO.C,C13*%
X230790000Y-76785000D03*
X230790000Y-78335000D03*
%TD*%
%TO.C,C14*%
X230790000Y-83295000D03*
X230790000Y-84845000D03*
%TD*%
D13*
%TO.C,R24*%
X247645000Y-82310000D03*
X245995000Y-82310000D03*
%TD*%
D14*
%TO.C,IC1*%
X242220000Y-86798000D03*
X241720000Y-86798000D03*
X241220000Y-86798000D03*
X240720000Y-86798000D03*
X240220000Y-86798000D03*
X239720000Y-86798000D03*
X239220000Y-86798000D03*
X238720000Y-86798000D03*
X238220000Y-86798000D03*
X237720000Y-86798000D03*
X237220000Y-86798000D03*
X236720000Y-86798000D03*
X236220000Y-86798000D03*
X235720000Y-86798000D03*
X235220000Y-86798000D03*
X234720000Y-86798000D03*
D15*
X232732000Y-84810000D03*
X232732000Y-84310000D03*
X232732000Y-83810000D03*
X232732000Y-83310000D03*
X232732000Y-82810000D03*
X232732000Y-82310000D03*
X232732000Y-81810000D03*
X232732000Y-81310000D03*
X232732000Y-80810000D03*
X232732000Y-80310000D03*
X232732000Y-79810000D03*
X232732000Y-79310000D03*
X232732000Y-78810000D03*
X232732000Y-78310000D03*
X232732000Y-77810000D03*
X232732000Y-77310000D03*
D14*
X234720000Y-75322000D03*
X235220000Y-75322000D03*
X235720000Y-75322000D03*
X236220000Y-75322000D03*
X236720000Y-75322000D03*
X237220000Y-75322000D03*
X237720000Y-75322000D03*
X238220000Y-75322000D03*
X238720000Y-75322000D03*
X239220000Y-75322000D03*
X239720000Y-75322000D03*
X240220000Y-75322000D03*
X240720000Y-75322000D03*
X241220000Y-75322000D03*
X241720000Y-75322000D03*
X242220000Y-75322000D03*
D15*
X244208000Y-77310000D03*
X244208000Y-77810000D03*
X244208000Y-78310000D03*
X244208000Y-78810000D03*
X244208000Y-79310000D03*
X244208000Y-79810000D03*
X244208000Y-80310000D03*
X244208000Y-80810000D03*
X244208000Y-81310000D03*
X244208000Y-81810000D03*
X244208000Y-82310000D03*
X244208000Y-82810000D03*
X244208000Y-83310000D03*
X244208000Y-83810000D03*
X244208000Y-84310000D03*
X244208000Y-84810000D03*
%TD*%
M02*
