%TF.GenerationSoftware,KiCad,Pcbnew,(6.0.2)*%
%TF.CreationDate,2022-06-14T20:32:41+02:00*%
%TF.ProjectId,SB-Spoko Bezpieczniki,53422d53-706f-46b6-9f20-42657a706965,rev?*%
%TF.SameCoordinates,Original*%
%TF.FileFunction,Legend,Top*%
%TF.FilePolarity,Positive*%
%FSLAX46Y46*%
G04 Gerber Fmt 4.6, Leading zero omitted, Abs format (unit mm)*
G04 Created by KiCad (PCBNEW (6.0.2)) date 2022-06-14 20:32:41*
%MOMM*%
%LPD*%
G01*
G04 APERTURE LIST*
%ADD10C,0.250000*%
%ADD11C,0.120000*%
%ADD12C,0.100000*%
%ADD13C,0.200000*%
G04 APERTURE END LIST*
D10*
X169882380Y-118656309D02*
X168882380Y-118656309D01*
X169882380Y-118180119D02*
X168882380Y-118180119D01*
X169882380Y-117608690D01*
X168882380Y-117608690D01*
X172242380Y-119232500D02*
X172242380Y-119042023D01*
X172290000Y-118946785D01*
X172385238Y-118851547D01*
X172575714Y-118803928D01*
X172909047Y-118803928D01*
X173099523Y-118851547D01*
X173194761Y-118946785D01*
X173242380Y-119042023D01*
X173242380Y-119232500D01*
X173194761Y-119327738D01*
X173099523Y-119422976D01*
X172909047Y-119470595D01*
X172575714Y-119470595D01*
X172385238Y-119422976D01*
X172290000Y-119327738D01*
X172242380Y-119232500D01*
X172242380Y-118375357D02*
X173051904Y-118375357D01*
X173147142Y-118327738D01*
X173194761Y-118280119D01*
X173242380Y-118184880D01*
X173242380Y-117994404D01*
X173194761Y-117899166D01*
X173147142Y-117851547D01*
X173051904Y-117803928D01*
X172242380Y-117803928D01*
X172242380Y-117470595D02*
X172242380Y-116899166D01*
X173242380Y-117184880D02*
X172242380Y-117184880D01*
D11*
%TO.C,C1*%
X164410000Y-100820580D02*
X164410000Y-100539420D01*
X163390000Y-100820580D02*
X163390000Y-100539420D01*
%TO.C,C2*%
X168909420Y-117210000D02*
X169190580Y-117210000D01*
X168909420Y-116190000D02*
X169190580Y-116190000D01*
%TO.C,C3*%
X229470580Y-119010000D02*
X229189420Y-119010000D01*
X229470580Y-117990000D02*
X229189420Y-117990000D01*
%TO.C,C7*%
X211250000Y-122079420D02*
X211250000Y-122360580D01*
X210230000Y-122079420D02*
X210230000Y-122360580D01*
%TO.C,FB1*%
X196282779Y-78450000D02*
X195957221Y-78450000D01*
X196282779Y-79470000D02*
X195957221Y-79470000D01*
%TO.C,FB2*%
X187020000Y-73817221D02*
X187020000Y-74142779D01*
X186000000Y-73817221D02*
X186000000Y-74142779D01*
%TO.C,C6*%
X187660000Y-110809420D02*
X187660000Y-111090580D01*
X188680000Y-110809420D02*
X188680000Y-111090580D01*
%TO.C,D18*%
X189150000Y-82710000D02*
X191310000Y-82710000D01*
X189150000Y-82710000D02*
X189150000Y-81780000D01*
X189150000Y-79550000D02*
X189150000Y-80480000D01*
X189150000Y-79550000D02*
X190610000Y-79550000D01*
%TO.C,JP1*%
X110590000Y-76000000D02*
X113190000Y-76000000D01*
X109320000Y-76000000D02*
X107990000Y-76000000D01*
X113190000Y-76000000D02*
X113190000Y-73340000D01*
X110590000Y-73340000D02*
X113190000Y-73340000D01*
X110590000Y-76000000D02*
X110590000Y-73340000D01*
X107990000Y-76000000D02*
X107990000Y-74670000D01*
%TO.C,C30*%
X224130000Y-86099420D02*
X224130000Y-86380580D01*
X225150000Y-86099420D02*
X225150000Y-86380580D01*
%TO.C,C31*%
X216469420Y-97930000D02*
X216750580Y-97930000D01*
X216469420Y-98950000D02*
X216750580Y-98950000D01*
%TO.C,C34*%
X243360000Y-87680580D02*
X243360000Y-87399420D01*
X242340000Y-87680580D02*
X242340000Y-87399420D01*
%TO.C,C27*%
X195979420Y-76990000D02*
X196260580Y-76990000D01*
X195979420Y-78010000D02*
X196260580Y-78010000D01*
%TO.C,C28*%
X195979420Y-75530000D02*
X196260580Y-75530000D01*
X195979420Y-76550000D02*
X196260580Y-76550000D01*
%TO.C,C32*%
X153279420Y-92820000D02*
X153560580Y-92820000D01*
X153279420Y-93840000D02*
X153560580Y-93840000D01*
%TO.C,C33*%
X230250000Y-90730580D02*
X230250000Y-90449420D01*
X231270000Y-90730580D02*
X231270000Y-90449420D01*
%TO.C,C29*%
X184435580Y-75280000D02*
X184154420Y-75280000D01*
X184435580Y-74260000D02*
X184154420Y-74260000D01*
%TO.C,D22*%
X240920000Y-83405000D02*
X238635000Y-83405000D01*
X238635000Y-84875000D02*
X240920000Y-84875000D01*
X238635000Y-83405000D02*
X238635000Y-84875000D01*
%TO.C,D15*%
X121957500Y-93750000D02*
X124242500Y-93750000D01*
X124242500Y-92280000D02*
X121957500Y-92280000D01*
X124242500Y-93750000D02*
X124242500Y-92280000D01*
%TO.C,D19*%
X238625000Y-80495000D02*
X240910000Y-80495000D01*
X238625000Y-79025000D02*
X238625000Y-80495000D01*
X240910000Y-79025000D02*
X238625000Y-79025000D01*
%TO.C,C35*%
X237700000Y-87680580D02*
X237700000Y-87399420D01*
X236680000Y-87680580D02*
X236680000Y-87399420D01*
%TO.C,C37*%
X240300580Y-96170000D02*
X240019420Y-96170000D01*
X240300580Y-97190000D02*
X240019420Y-97190000D01*
%TO.C,D21*%
X238635000Y-80485000D02*
X238635000Y-81955000D01*
X238635000Y-81955000D02*
X240920000Y-81955000D01*
X240920000Y-80485000D02*
X238635000Y-80485000D01*
%TO.C,D20*%
X238635000Y-81945000D02*
X238635000Y-83415000D01*
X240920000Y-81945000D02*
X238635000Y-81945000D01*
X238635000Y-83415000D02*
X240920000Y-83415000D01*
%TO.C,D12*%
X134940000Y-93870000D02*
X134940000Y-92400000D01*
X132655000Y-93870000D02*
X134940000Y-93870000D01*
X134940000Y-92400000D02*
X132655000Y-92400000D01*
%TO.C,D13*%
X144005000Y-93870000D02*
X146290000Y-93870000D01*
X146290000Y-92400000D02*
X144005000Y-92400000D01*
X146290000Y-93870000D02*
X146290000Y-92400000D01*
%TO.C,D14*%
X143330000Y-92400000D02*
X141045000Y-92400000D01*
X141045000Y-93870000D02*
X143330000Y-93870000D01*
X143330000Y-93870000D02*
X143330000Y-92400000D01*
%TO.C,R10*%
X133692258Y-92197500D02*
X133217742Y-92197500D01*
X133692258Y-91152500D02*
X133217742Y-91152500D01*
%TO.C,R37*%
X242837742Y-80282500D02*
X243312258Y-80282500D01*
X242837742Y-79237500D02*
X243312258Y-79237500D01*
%TO.C,R8*%
X120072258Y-116407500D02*
X119597742Y-116407500D01*
X120072258Y-115362500D02*
X119597742Y-115362500D01*
%TO.C,R19*%
X111272258Y-76687500D02*
X110797742Y-76687500D01*
X111272258Y-77732500D02*
X110797742Y-77732500D01*
%TO.C,R14*%
X142082258Y-91152500D02*
X141607742Y-91152500D01*
X142082258Y-92197500D02*
X141607742Y-92197500D01*
%TO.C,R20*%
X228777500Y-90352742D02*
X228777500Y-90827258D01*
X229822500Y-90352742D02*
X229822500Y-90827258D01*
%TO.C,R38*%
X242842742Y-82157500D02*
X243317258Y-82157500D01*
X242842742Y-83202500D02*
X243317258Y-83202500D01*
%TO.C,R3*%
X232742500Y-90352742D02*
X232742500Y-90827258D01*
X231697500Y-90352742D02*
X231697500Y-90827258D01*
%TO.C,R13*%
X145042258Y-92197500D02*
X144567742Y-92197500D01*
X145042258Y-91152500D02*
X144567742Y-91152500D01*
%TO.C,R7*%
X123032258Y-116407500D02*
X122557742Y-116407500D01*
X123032258Y-115362500D02*
X122557742Y-115362500D01*
%TO.C,R11*%
X136642258Y-101532500D02*
X136167742Y-101532500D01*
X136642258Y-102577500D02*
X136167742Y-102577500D01*
%TO.C,R9*%
X136652258Y-91152500D02*
X136177742Y-91152500D01*
X136652258Y-92197500D02*
X136177742Y-92197500D01*
%TO.C,R12*%
X133682258Y-101532500D02*
X133207742Y-101532500D01*
X133682258Y-102577500D02*
X133207742Y-102577500D01*
%TO.C,U15*%
X153879000Y-94521000D02*
X152979000Y-94521000D01*
X159479000Y-94521000D02*
X159479000Y-95421000D01*
X152979000Y-94521000D02*
X152979000Y-95421000D01*
X153979000Y-101021000D02*
X152979000Y-101021000D01*
X158529000Y-101071000D02*
X159679000Y-101071000D01*
X152979000Y-101021000D02*
X152979000Y-100121000D01*
X158579000Y-94521000D02*
X159479000Y-94521000D01*
%TO.C,C36*%
X247825563Y-103030000D02*
X246540000Y-103030000D01*
X248890000Y-101965563D02*
X248890000Y-96210000D01*
X248890000Y-96210000D02*
X246540000Y-96210000D01*
X247825563Y-103030000D02*
X248890000Y-101965563D01*
X243632500Y-104057500D02*
X243632500Y-103270000D01*
X243134437Y-103030000D02*
X244420000Y-103030000D01*
X242070000Y-96210000D02*
X244420000Y-96210000D01*
X243238750Y-103663750D02*
X244026250Y-103663750D01*
X242070000Y-101965563D02*
X242070000Y-96210000D01*
X243134437Y-103030000D02*
X242070000Y-101965563D01*
%TO.C,C5*%
X227764437Y-115930000D02*
X226700000Y-114865563D01*
X233520000Y-114865563D02*
X233520000Y-109110000D01*
X227868750Y-116563750D02*
X228656250Y-116563750D01*
X227764437Y-115930000D02*
X229050000Y-115930000D01*
X232455563Y-115930000D02*
X233520000Y-114865563D01*
X232455563Y-115930000D02*
X231170000Y-115930000D01*
X228262500Y-116957500D02*
X228262500Y-116170000D01*
X233520000Y-109110000D02*
X231170000Y-109110000D01*
X226700000Y-114865563D02*
X226700000Y-109110000D01*
X226700000Y-109110000D02*
X229050000Y-109110000D01*
%TO.C,U13*%
X222646000Y-86194000D02*
X221746000Y-86194000D01*
X216146000Y-86194000D02*
X217046000Y-86194000D01*
X216146000Y-87194000D02*
X216146000Y-86194000D01*
X222646000Y-92694000D02*
X221746000Y-92694000D01*
X222646000Y-91794000D02*
X222646000Y-92694000D01*
X216096000Y-91744000D02*
X216096000Y-92894000D01*
X222646000Y-87094000D02*
X222646000Y-86194000D01*
%TO.C,U14*%
X217066000Y-99674000D02*
X216166000Y-99674000D01*
X216166000Y-99674000D02*
X216166000Y-100574000D01*
X216166000Y-106174000D02*
X216166000Y-105274000D01*
X222666000Y-99674000D02*
X222666000Y-100574000D01*
X221766000Y-99674000D02*
X222666000Y-99674000D01*
X221716000Y-106224000D02*
X222866000Y-106224000D01*
X217166000Y-106174000D02*
X216166000Y-106174000D01*
%TO.C,U12*%
X171617500Y-100012500D02*
X171617500Y-101012500D01*
X165117500Y-95412500D02*
X165117500Y-94512500D01*
X165117500Y-100112500D02*
X165117500Y-101012500D01*
X165117500Y-101012500D02*
X166017500Y-101012500D01*
X171667500Y-95462500D02*
X171667500Y-94312500D01*
X171617500Y-101012500D02*
X170717500Y-101012500D01*
X165117500Y-94512500D02*
X166017500Y-94512500D01*
%TO.C,C9*%
X217485563Y-120710000D02*
X218550000Y-121774437D01*
X211730000Y-121774437D02*
X211730000Y-127530000D01*
X212794437Y-120710000D02*
X214080000Y-120710000D01*
X218550000Y-127530000D02*
X216200000Y-127530000D01*
X217485563Y-120710000D02*
X216200000Y-120710000D01*
X217381250Y-120076250D02*
X216593750Y-120076250D01*
X212794437Y-120710000D02*
X211730000Y-121774437D01*
X216987500Y-119682500D02*
X216987500Y-120470000D01*
X211730000Y-127530000D02*
X214080000Y-127530000D01*
X218550000Y-121774437D02*
X218550000Y-127530000D01*
%TO.C,R21*%
X131197258Y-120032500D02*
X130722742Y-120032500D01*
X131197258Y-121077500D02*
X130722742Y-121077500D01*
%TO.C,U3*%
X239080000Y-117960000D02*
X237580000Y-117960000D01*
X237580000Y-127410000D02*
X236480000Y-127410000D01*
X237580000Y-128360000D02*
X237580000Y-127410000D01*
X237580000Y-117960000D02*
X237580000Y-118910000D01*
X239080000Y-128360000D02*
X237580000Y-128360000D01*
X237580000Y-118910000D02*
X232455000Y-118910000D01*
%TO.C,C4*%
X171284437Y-118830000D02*
X177040000Y-118830000D01*
X169192500Y-120392500D02*
X169980000Y-120392500D01*
X170220000Y-124585563D02*
X171284437Y-125650000D01*
X169586250Y-119998750D02*
X169586250Y-120786250D01*
X170220000Y-119894437D02*
X170220000Y-121180000D01*
X171284437Y-125650000D02*
X177040000Y-125650000D01*
X177040000Y-125650000D02*
X177040000Y-123300000D01*
X170220000Y-119894437D02*
X171284437Y-118830000D01*
X170220000Y-124585563D02*
X170220000Y-123300000D01*
X177040000Y-118830000D02*
X177040000Y-121180000D01*
%TO.C,C8*%
X185881250Y-108836250D02*
X185093750Y-108836250D01*
X185985563Y-109470000D02*
X184700000Y-109470000D01*
X180230000Y-110534437D02*
X180230000Y-116290000D01*
X187050000Y-116290000D02*
X184700000Y-116290000D01*
X181294437Y-109470000D02*
X182580000Y-109470000D01*
X185985563Y-109470000D02*
X187050000Y-110534437D01*
X187050000Y-110534437D02*
X187050000Y-116290000D01*
X181294437Y-109470000D02*
X180230000Y-110534437D01*
X180230000Y-116290000D02*
X182580000Y-116290000D01*
X185487500Y-108442500D02*
X185487500Y-109230000D01*
%TO.C,Q5*%
X143890000Y-117840000D02*
X142430000Y-117840000D01*
X143890000Y-114680000D02*
X141730000Y-114680000D01*
X143890000Y-114680000D02*
X143890000Y-115610000D01*
X143890000Y-117840000D02*
X143890000Y-116910000D01*
%TO.C,L3*%
X160385000Y-120850000D02*
X160385000Y-118550000D01*
X160385000Y-118550000D02*
X167785000Y-118550000D01*
X167785000Y-125950000D02*
X160385000Y-125950000D01*
X167785000Y-123650000D02*
X167785000Y-125950000D01*
X160385000Y-125950000D02*
X160385000Y-123650000D01*
X167785000Y-118550000D02*
X167785000Y-120850000D01*
%TO.C,L1*%
X179260000Y-110210000D02*
X179260000Y-112510000D01*
X179260000Y-115310000D02*
X179260000Y-117610000D01*
X171860000Y-112510000D02*
X171860000Y-110210000D01*
X179260000Y-117610000D02*
X171860000Y-117610000D01*
X171860000Y-117610000D02*
X171860000Y-115310000D01*
X171860000Y-110210000D02*
X179260000Y-110210000D01*
%TO.C,FB3*%
X236110000Y-80354721D02*
X236110000Y-80680279D01*
X237130000Y-80354721D02*
X237130000Y-80680279D01*
%TO.C,R22*%
X131197258Y-126277500D02*
X130722742Y-126277500D01*
X131197258Y-125232500D02*
X130722742Y-125232500D01*
%TO.C,R39*%
X242842742Y-81742500D02*
X243317258Y-81742500D01*
X242842742Y-80697500D02*
X243317258Y-80697500D01*
%TO.C,Q2*%
X138640000Y-114650000D02*
X138640000Y-115580000D01*
X138640000Y-114650000D02*
X140100000Y-114650000D01*
X138640000Y-117810000D02*
X138640000Y-116880000D01*
X138640000Y-117810000D02*
X140800000Y-117810000D01*
%TO.C,R40*%
X242842742Y-84662500D02*
X243317258Y-84662500D01*
X242842742Y-83617500D02*
X243317258Y-83617500D01*
%TO.C,J1*%
X239670000Y-95210000D02*
X226910000Y-95210000D01*
X239670000Y-92550000D02*
X239670000Y-95210000D01*
X242270000Y-92550000D02*
X242270000Y-93880000D01*
X226910000Y-92550000D02*
X226910000Y-95210000D01*
X239670000Y-92550000D02*
X226910000Y-92550000D01*
X240940000Y-92550000D02*
X242270000Y-92550000D01*
%TO.C,Q4*%
X138620000Y-121620000D02*
X138620000Y-122550000D01*
X138620000Y-124780000D02*
X138620000Y-123850000D01*
X138620000Y-124780000D02*
X140780000Y-124780000D01*
X138620000Y-121620000D02*
X140080000Y-121620000D01*
%TO.C,Q1*%
X131720000Y-121590000D02*
X129560000Y-121590000D01*
X131720000Y-124750000D02*
X130260000Y-124750000D01*
X131720000Y-121590000D02*
X131720000Y-122520000D01*
X131720000Y-124750000D02*
X131720000Y-123820000D01*
%TO.C,Q3*%
X143900000Y-124800000D02*
X142440000Y-124800000D01*
X143900000Y-121640000D02*
X143900000Y-122570000D01*
X143900000Y-124800000D02*
X143900000Y-123870000D01*
X143900000Y-121640000D02*
X141740000Y-121640000D01*
%TO.C,R23*%
X132967500Y-122927742D02*
X132967500Y-123402258D01*
X134012500Y-122927742D02*
X134012500Y-123402258D01*
%TO.C,R47*%
X185987258Y-78057500D02*
X185512742Y-78057500D01*
X185987258Y-79102500D02*
X185512742Y-79102500D01*
%TO.C,R28*%
X139162742Y-119362500D02*
X139637258Y-119362500D01*
X139162742Y-118317500D02*
X139637258Y-118317500D01*
%TO.C,R29*%
X139162742Y-114142500D02*
X139637258Y-114142500D01*
X139162742Y-113097500D02*
X139637258Y-113097500D01*
%TO.C,R32*%
X139142742Y-121132500D02*
X139617258Y-121132500D01*
X139142742Y-120087500D02*
X139617258Y-120087500D01*
%TO.C,R33*%
X136317500Y-123437258D02*
X136317500Y-122962742D01*
X137362500Y-123437258D02*
X137362500Y-122962742D01*
%TO.C,R35*%
X143377258Y-126337500D02*
X142902742Y-126337500D01*
X143377258Y-125292500D02*
X142902742Y-125292500D01*
%TO.C,U2*%
X161275000Y-116460000D02*
X166400000Y-116460000D01*
X159775000Y-117410000D02*
X161275000Y-117410000D01*
X161275000Y-107960000D02*
X162375000Y-107960000D01*
X161275000Y-107010000D02*
X161275000Y-107960000D01*
X159775000Y-107010000D02*
X161275000Y-107010000D01*
X161275000Y-117410000D02*
X161275000Y-116460000D01*
%TO.C,R31*%
X139142742Y-126322500D02*
X139617258Y-126322500D01*
X139142742Y-125277500D02*
X139617258Y-125277500D01*
%TO.C,R30*%
X137382500Y-116467258D02*
X137382500Y-115992742D01*
X136337500Y-116467258D02*
X136337500Y-115992742D01*
%TO.C,R26*%
X143367258Y-118347500D02*
X142892742Y-118347500D01*
X143367258Y-119392500D02*
X142892742Y-119392500D01*
%TO.C,R34*%
X143377258Y-121147500D02*
X142902742Y-121147500D01*
X143377258Y-120102500D02*
X142902742Y-120102500D01*
%TO.C,SW1*%
X220990000Y-74220000D02*
X220990000Y-75720000D01*
X222240000Y-78220000D02*
X226740000Y-78220000D01*
X226740000Y-71720000D02*
X222240000Y-71720000D01*
X227990000Y-75720000D02*
X227990000Y-74220000D01*
%TO.C,R25*%
X143367258Y-113127500D02*
X142892742Y-113127500D01*
X143367258Y-114172500D02*
X142892742Y-114172500D01*
%TO.C,R36*%
X145147500Y-122977742D02*
X145147500Y-123452258D01*
X146192500Y-122977742D02*
X146192500Y-123452258D01*
%TO.C,R27*%
X146182500Y-116022742D02*
X146182500Y-116497258D01*
X145137500Y-116022742D02*
X145137500Y-116497258D01*
%TO.C,D3*%
X150810000Y-125820000D02*
X154110000Y-125820000D01*
X150810000Y-125820000D02*
X150810000Y-120420000D01*
X154110000Y-125820000D02*
X154110000Y-120420000D01*
%TO.C,D4*%
X249120000Y-109390000D02*
X249120000Y-114790000D01*
X249120000Y-109390000D02*
X245820000Y-109390000D01*
X245820000Y-109390000D02*
X245820000Y-114790000D01*
%TO.C,D16*%
X121282500Y-92280000D02*
X118997500Y-92280000D01*
X118997500Y-93750000D02*
X121282500Y-93750000D01*
X121282500Y-93750000D02*
X121282500Y-92280000D01*
%TO.C,D6*%
X245430000Y-109390000D02*
X245430000Y-114790000D01*
X242130000Y-109390000D02*
X242130000Y-114790000D01*
X245430000Y-109390000D02*
X242130000Y-109390000D01*
%TO.C,D5*%
X155500000Y-125800000D02*
X158800000Y-125800000D01*
X155500000Y-125800000D02*
X155500000Y-120400000D01*
X158800000Y-125800000D02*
X158800000Y-120400000D01*
%TO.C,D7*%
X167425000Y-115310000D02*
X170725000Y-115310000D01*
X170725000Y-115310000D02*
X170725000Y-109910000D01*
X167425000Y-115310000D02*
X167425000Y-109910000D01*
%TO.C,R15*%
X145037258Y-101522500D02*
X144562742Y-101522500D01*
X145037258Y-102567500D02*
X144562742Y-102567500D01*
%TO.C,D8*%
X231420000Y-120060000D02*
X231420000Y-125460000D01*
X231420000Y-120060000D02*
X228120000Y-120060000D01*
X228120000Y-120060000D02*
X228120000Y-125460000D01*
%TO.C,R16*%
X142077258Y-101522500D02*
X141602742Y-101522500D01*
X142077258Y-102567500D02*
X141602742Y-102567500D01*
%TO.C,J2*%
X102417500Y-124590000D02*
X102417500Y-123590000D01*
X84037500Y-127510000D02*
X87597500Y-126880000D01*
X102417500Y-123590000D02*
X101417500Y-124090000D01*
X84037500Y-68220000D02*
X93697500Y-64750000D01*
X101027500Y-65925000D02*
X101027500Y-64750000D01*
X87597500Y-73040000D02*
X84037500Y-72410000D01*
X84037500Y-131700000D02*
X84037500Y-127510000D01*
X93697500Y-135170000D02*
X84037500Y-131700000D01*
X93697500Y-64750000D02*
X101027500Y-64750000D01*
X101027500Y-125995000D02*
X101027500Y-73925000D01*
X101027500Y-135170000D02*
X101027500Y-133995000D01*
X101417500Y-124090000D02*
X102417500Y-124590000D01*
X101027500Y-135170000D02*
X93697500Y-135170000D01*
X87597500Y-126880000D02*
X87597500Y-73040000D01*
X84037500Y-72410000D02*
X84037500Y-68220000D01*
%TO.C,U11*%
X190935000Y-79235000D02*
X194385000Y-79235000D01*
X190935000Y-74115000D02*
X192885000Y-74115000D01*
X190935000Y-79235000D02*
X188985000Y-79235000D01*
X190935000Y-74115000D02*
X188985000Y-74115000D01*
D10*
%TO.C,IC6*%
X178150000Y-81620000D02*
G75*
G03*
X178150000Y-81620000I-125000J0D01*
G01*
D11*
%TO.C,C18*%
X168370580Y-85160000D02*
X168089420Y-85160000D01*
X168370580Y-84140000D02*
X168089420Y-84140000D01*
%TO.C,F1*%
X163937936Y-80820000D02*
X166742064Y-80820000D01*
X163937936Y-83540000D02*
X166742064Y-83540000D01*
%TO.C,R6*%
X120072258Y-104992500D02*
X119597742Y-104992500D01*
X120072258Y-106037500D02*
X119597742Y-106037500D01*
%TO.C,U4*%
X234470000Y-106100000D02*
X234470000Y-100090000D01*
X234470000Y-100090000D02*
X235730000Y-100090000D01*
X241290000Y-100090000D02*
X240030000Y-100090000D01*
X241290000Y-103850000D02*
X241290000Y-100090000D01*
%TO.C,Q6*%
X173040000Y-83850000D02*
X173040000Y-85310000D01*
X173040000Y-83850000D02*
X172110000Y-83850000D01*
X169880000Y-83850000D02*
X170810000Y-83850000D01*
X169880000Y-83850000D02*
X169880000Y-86010000D01*
%TO.C,R50*%
X240252500Y-76952742D02*
X240252500Y-77427258D01*
X239207500Y-76952742D02*
X239207500Y-77427258D01*
%TO.C,ILIM4*%
X201182742Y-119542500D02*
X201657258Y-119542500D01*
X201182742Y-118497500D02*
X201657258Y-118497500D01*
%TO.C,IMON2*%
X227697258Y-98277500D02*
X227222742Y-98277500D01*
X227697258Y-99322500D02*
X227222742Y-99322500D01*
D12*
%TO.C,J3*%
X139480000Y-75635000D02*
X139480000Y-81195000D01*
X125220000Y-81195000D02*
X125220000Y-75635000D01*
X125220000Y-75635000D02*
X139480000Y-75635000D01*
D11*
%TO.C,L2*%
X227000000Y-122840000D02*
X227000000Y-125140000D01*
X219600000Y-125140000D02*
X219600000Y-122840000D01*
X219600000Y-117740000D02*
X227000000Y-117740000D01*
X227000000Y-117740000D02*
X227000000Y-120040000D01*
X227000000Y-125140000D02*
X219600000Y-125140000D01*
X219600000Y-120040000D02*
X219600000Y-117740000D01*
%TO.C,R55*%
X186655000Y-123790242D02*
X186655000Y-124264758D01*
X185610000Y-123790242D02*
X185610000Y-124264758D01*
%TO.C,Q8*%
X187802500Y-122447500D02*
X187802500Y-123377500D01*
X187802500Y-125607500D02*
X187802500Y-124677500D01*
X187802500Y-125607500D02*
X189962500Y-125607500D01*
X187802500Y-122447500D02*
X189262500Y-122447500D01*
%TO.C,ILIM5*%
X226827500Y-101247258D02*
X226827500Y-100772742D01*
X227872500Y-101247258D02*
X227872500Y-100772742D01*
%TO.C,R52*%
X235397258Y-77512500D02*
X234922742Y-77512500D01*
X235397258Y-76467500D02*
X234922742Y-76467500D01*
%TO.C,C39*%
X207340000Y-119460580D02*
X207340000Y-119179420D01*
X208360000Y-119460580D02*
X208360000Y-119179420D01*
%TO.C,F3*%
X228470000Y-105292064D02*
X228470000Y-102487936D01*
X231190000Y-105292064D02*
X231190000Y-102487936D01*
%TO.C,R17*%
X181819753Y-121972500D02*
X182294269Y-121972500D01*
X181819753Y-120927500D02*
X182294269Y-120927500D01*
D10*
%TO.C,IC5*%
X231602500Y-99785000D02*
G75*
G03*
X231602500Y-99785000I-125000J0D01*
G01*
D11*
%TO.C,R1*%
X230432742Y-83022500D02*
X230907258Y-83022500D01*
X230432742Y-81977500D02*
X230907258Y-81977500D01*
%TO.C,D11*%
X135612500Y-93875000D02*
X137897500Y-93875000D01*
X137897500Y-92405000D02*
X135612500Y-92405000D01*
X137897500Y-93875000D02*
X137897500Y-92405000D01*
%TO.C,C19*%
X182350580Y-81300000D02*
X182069420Y-81300000D01*
X182350580Y-80280000D02*
X182069420Y-80280000D01*
%TO.C,ILIM3*%
X201177742Y-118082500D02*
X201652258Y-118082500D01*
X201177742Y-117037500D02*
X201652258Y-117037500D01*
%TO.C,R45*%
X122992258Y-91032500D02*
X122517742Y-91032500D01*
X122992258Y-92077500D02*
X122517742Y-92077500D01*
D13*
%TO.C,O2*%
X137370000Y-99025000D02*
X132470000Y-99025000D01*
X137525000Y-94125000D02*
X137525000Y-95825000D01*
X132470000Y-99025000D02*
X132470000Y-96175000D01*
X132470000Y-96175000D02*
X137370000Y-96175000D01*
X137370000Y-96175000D02*
X137370000Y-99025000D01*
D11*
%TO.C,R60*%
X171772742Y-81647500D02*
X172247258Y-81647500D01*
X171772742Y-82692500D02*
X172247258Y-82692500D01*
%TO.C,R53*%
X188799758Y-122070000D02*
X188325242Y-122070000D01*
X188799758Y-121025000D02*
X188325242Y-121025000D01*
%TO.C,ILIM7*%
X179487258Y-86272500D02*
X179012742Y-86272500D01*
X179487258Y-85227500D02*
X179012742Y-85227500D01*
%TO.C,R49*%
X120042258Y-102447500D02*
X119567742Y-102447500D01*
X120042258Y-101402500D02*
X119567742Y-101402500D01*
%TO.C,F2*%
X200627936Y-124590000D02*
X203432064Y-124590000D01*
X200627936Y-121870000D02*
X203432064Y-121870000D01*
%TO.C,Y1*%
X238020000Y-85890000D02*
X238020000Y-89190000D01*
X238020000Y-89190000D02*
X242020000Y-89190000D01*
%TO.C,R2*%
X230432742Y-81562500D02*
X230907258Y-81562500D01*
X230432742Y-80517500D02*
X230907258Y-80517500D01*
%TO.C,R54*%
X102657500Y-117517258D02*
X102657500Y-117042742D01*
X103702500Y-117517258D02*
X103702500Y-117042742D01*
%TO.C,Q7*%
X181297011Y-122350000D02*
X181297011Y-123280000D01*
X181297011Y-125510000D02*
X181297011Y-124580000D01*
X181297011Y-125510000D02*
X183457011Y-125510000D01*
X181297011Y-122350000D02*
X182757011Y-122350000D01*
%TO.C,R4*%
X230437742Y-79057500D02*
X230912258Y-79057500D01*
X230437742Y-80102500D02*
X230912258Y-80102500D01*
%TO.C,R59*%
X170952742Y-87562500D02*
X171427258Y-87562500D01*
X170952742Y-86517500D02*
X171427258Y-86517500D01*
%TO.C,ILIM1*%
X167982742Y-77707500D02*
X168457258Y-77707500D01*
X167982742Y-78752500D02*
X168457258Y-78752500D01*
%TO.C,C15*%
X227600580Y-96830000D02*
X227319420Y-96830000D01*
X227600580Y-97850000D02*
X227319420Y-97850000D01*
D10*
%TO.C,IC4*%
X204070000Y-123200000D02*
G75*
G03*
X204070000Y-123200000I-125000J0D01*
G01*
D13*
%TO.C,O1*%
X118860000Y-110005000D02*
X123760000Y-110005000D01*
X123760000Y-110005000D02*
X123760000Y-112855000D01*
X123915000Y-107955000D02*
X123915000Y-109655000D01*
X118860000Y-112855000D02*
X118860000Y-110005000D01*
X123760000Y-112855000D02*
X118860000Y-112855000D01*
D11*
%TO.C,C20*%
X179109420Y-81290000D02*
X179390580Y-81290000D01*
X179109420Y-80270000D02*
X179390580Y-80270000D01*
%TO.C,U5*%
X176060000Y-83860000D02*
X176060000Y-82460000D01*
X173740000Y-82460000D02*
X173740000Y-84360000D01*
%TO.C,U6*%
X190920000Y-125740000D02*
X190920000Y-119730000D01*
X190920000Y-119730000D02*
X192180000Y-119730000D01*
X197740000Y-119730000D02*
X196480000Y-119730000D01*
X197740000Y-123490000D02*
X197740000Y-119730000D01*
D13*
%TO.C,O3*%
X140880000Y-99015000D02*
X140880000Y-96165000D01*
X140880000Y-96165000D02*
X145780000Y-96165000D01*
X145935000Y-94115000D02*
X145935000Y-95815000D01*
X145780000Y-96165000D02*
X145780000Y-99015000D01*
X145780000Y-99015000D02*
X140880000Y-99015000D01*
D10*
%TO.C,IC2*%
X169580000Y-83820000D02*
G75*
G03*
X169580000Y-83820000I-125000J0D01*
G01*
D11*
%TO.C,R61*%
X176527258Y-80257500D02*
X176052742Y-80257500D01*
X176527258Y-81302500D02*
X176052742Y-81302500D01*
%TO.C,C21*%
X189300000Y-117870580D02*
X189300000Y-117589420D01*
X190320000Y-117870580D02*
X190320000Y-117589420D01*
%TO.C,R46*%
X120032258Y-91032500D02*
X119557742Y-91032500D01*
X120032258Y-92077500D02*
X119557742Y-92077500D01*
%TO.C,R42*%
X188325242Y-127040000D02*
X188799758Y-127040000D01*
X188325242Y-125995000D02*
X188799758Y-125995000D01*
%TO.C,C17*%
X172400000Y-80030580D02*
X172400000Y-79749420D01*
X171380000Y-80030580D02*
X171380000Y-79749420D01*
%TO.C,R5*%
X123032258Y-104992500D02*
X122557742Y-104992500D01*
X123032258Y-106037500D02*
X122557742Y-106037500D01*
%TO.C,R43*%
X167992742Y-85587500D02*
X168467258Y-85587500D01*
X167992742Y-86632500D02*
X168467258Y-86632500D01*
%TO.C,R41*%
X180139511Y-123692742D02*
X180139511Y-124167258D01*
X179094511Y-123692742D02*
X179094511Y-124167258D01*
%TO.C,IMON3*%
X176517500Y-85232742D02*
X176517500Y-85707258D01*
X177562500Y-85232742D02*
X177562500Y-85707258D01*
%TO.C,D1*%
X124280000Y-107710000D02*
X124280000Y-106240000D01*
X124280000Y-106240000D02*
X121995000Y-106240000D01*
X121995000Y-107710000D02*
X124280000Y-107710000D01*
D13*
%TO.C,J4*%
X155900000Y-77750000D02*
X155900000Y-77750000D01*
X141800000Y-77750000D02*
X141800000Y-80000000D01*
X143850000Y-75600000D02*
X153850000Y-75600000D01*
X153850000Y-75600000D02*
X153850000Y-75600000D01*
X141800000Y-77750000D02*
X141800000Y-77750000D01*
X141800000Y-80000000D02*
X141800000Y-77750000D01*
X155900000Y-80000000D02*
X155900000Y-77750000D01*
X155900000Y-77750000D02*
X155900000Y-80000000D01*
X143850000Y-75600000D02*
X143850000Y-75600000D01*
X141800000Y-80000000D02*
X141800000Y-80000000D01*
X155900000Y-80000000D02*
X155900000Y-80000000D01*
X153850000Y-75600000D02*
X143850000Y-75600000D01*
D11*
%TO.C,R48*%
X123002258Y-101402500D02*
X122527742Y-101402500D01*
X123002258Y-102447500D02*
X122527742Y-102447500D01*
%TO.C,CLAMP1*%
X205440000Y-119465580D02*
X205440000Y-119184420D01*
X204420000Y-119465580D02*
X204420000Y-119184420D01*
%TO.C,C25*%
X102840000Y-120340000D02*
X105190000Y-120340000D01*
X103904437Y-127160000D02*
X102840000Y-126095563D01*
X108595563Y-127160000D02*
X107310000Y-127160000D01*
X109660000Y-126095563D02*
X109660000Y-120340000D01*
X104402500Y-128187500D02*
X104402500Y-127400000D01*
X108595563Y-127160000D02*
X109660000Y-126095563D01*
X103904437Y-127160000D02*
X105190000Y-127160000D01*
X102840000Y-126095563D02*
X102840000Y-120340000D01*
X104008750Y-127793750D02*
X104796250Y-127793750D01*
X109660000Y-120340000D02*
X107310000Y-120340000D01*
D13*
%TO.C,O5*%
X118840000Y-98895000D02*
X118840000Y-96045000D01*
X123740000Y-96045000D02*
X123740000Y-98895000D01*
X118840000Y-96045000D02*
X123740000Y-96045000D01*
X123895000Y-93995000D02*
X123895000Y-95695000D01*
X123740000Y-98895000D02*
X118840000Y-98895000D01*
D11*
%TO.C,R51*%
X240667500Y-76952742D02*
X240667500Y-77427258D01*
X241712500Y-76952742D02*
X241712500Y-77427258D01*
%TO.C,R44*%
X206912500Y-119557258D02*
X206912500Y-119082742D01*
X205867500Y-119557258D02*
X205867500Y-119082742D01*
%TO.C,F4*%
X183532064Y-81910000D02*
X180727936Y-81910000D01*
X183532064Y-84630000D02*
X180727936Y-84630000D01*
%TO.C,D2*%
X121320000Y-106240000D02*
X119035000Y-106240000D01*
X119035000Y-107710000D02*
X121320000Y-107710000D01*
X121320000Y-107710000D02*
X121320000Y-106240000D01*
%TO.C,L4*%
X234140000Y-111340000D02*
X234140000Y-109040000D01*
X234140000Y-109040000D02*
X241540000Y-109040000D01*
X234140000Y-116440000D02*
X234140000Y-114140000D01*
X241540000Y-109040000D02*
X241540000Y-111340000D01*
X241540000Y-116440000D02*
X234140000Y-116440000D01*
X241540000Y-114140000D02*
X241540000Y-116440000D01*
%TO.C,ILIM6*%
X225367500Y-101247258D02*
X225367500Y-100772742D01*
X226412500Y-101247258D02*
X226412500Y-100772742D01*
%TO.C,ILIM8*%
X179487258Y-86687500D02*
X179012742Y-86687500D01*
X179487258Y-87732500D02*
X179012742Y-87732500D01*
%TO.C,R56*%
X185195000Y-123790242D02*
X185195000Y-124264758D01*
X184150000Y-123790242D02*
X184150000Y-124264758D01*
%TO.C,C16*%
X230279420Y-97850000D02*
X230560580Y-97850000D01*
X230279420Y-96830000D02*
X230560580Y-96830000D01*
%TO.C,ILIM2*%
X167982742Y-80212500D02*
X168457258Y-80212500D01*
X167982742Y-79167500D02*
X168457258Y-79167500D01*
%TO.C,R18*%
X182294269Y-126932500D02*
X181819753Y-126932500D01*
X182294269Y-125887500D02*
X181819753Y-125887500D01*
%TO.C,L5*%
X235442779Y-91360000D02*
X235117221Y-91360000D01*
X235442779Y-90340000D02*
X235117221Y-90340000D01*
%TO.C,IMON1*%
X169907500Y-80127258D02*
X169907500Y-79652742D01*
X170952500Y-80127258D02*
X170952500Y-79652742D01*
%TD*%
M02*
