%TF.GenerationSoftware,KiCad,Pcbnew,(6.0.2)*%
%TF.CreationDate,2022-06-14T20:32:42+02:00*%
%TF.ProjectId,SB-Spoko Bezpieczniki,53422d53-706f-46b6-9f20-42657a706965,rev?*%
%TF.SameCoordinates,Original*%
%TF.FileFunction,Soldermask,Bot*%
%TF.FilePolarity,Negative*%
%FSLAX46Y46*%
G04 Gerber Fmt 4.6, Leading zero omitted, Abs format (unit mm)*
G04 Created by KiCad (PCBNEW (6.0.2)) date 2022-06-14 20:32:42*
%MOMM*%
%LPD*%
G01*
G04 APERTURE LIST*
G04 Aperture macros list*
%AMRoundRect*
0 Rectangle with rounded corners*
0 $1 Rounding radius*
0 $2 $3 $4 $5 $6 $7 $8 $9 X,Y pos of 4 corners*
0 Add a 4 corners polygon primitive as box body*
4,1,4,$2,$3,$4,$5,$6,$7,$8,$9,$2,$3,0*
0 Add four circle primitives for the rounded corners*
1,1,$1+$1,$2,$3*
1,1,$1+$1,$4,$5*
1,1,$1+$1,$6,$7*
1,1,$1+$1,$8,$9*
0 Add four rect primitives between the rounded corners*
20,1,$1+$1,$2,$3,$4,$5,0*
20,1,$1+$1,$4,$5,$6,$7,0*
20,1,$1+$1,$6,$7,$8,$9,0*
20,1,$1+$1,$8,$9,$2,$3,0*%
G04 Aperture macros list end*
%ADD10C,0.200000*%
%ADD11R,1.700000X1.700000*%
%ADD12O,1.700000X1.700000*%
%ADD13C,0.487500*%
%ADD14C,2.000000*%
%ADD15C,8.000000*%
%ADD16RoundRect,0.250000X0.600000X0.600000X-0.600000X0.600000X-0.600000X-0.600000X0.600000X-0.600000X0*%
%ADD17C,1.700000*%
%ADD18C,1.300000*%
%ADD19C,1.400000*%
%ADD20RoundRect,0.225000X0.225000X0.250000X-0.225000X0.250000X-0.225000X-0.250000X0.225000X-0.250000X0*%
%ADD21RoundRect,0.225000X0.250000X-0.225000X0.250000X0.225000X-0.250000X0.225000X-0.250000X-0.225000X0*%
%ADD22RoundRect,0.225000X-0.250000X0.225000X-0.250000X-0.225000X0.250000X-0.225000X0.250000X0.225000X0*%
%ADD23RoundRect,0.200000X0.200000X0.275000X-0.200000X0.275000X-0.200000X-0.275000X0.200000X-0.275000X0*%
%ADD24R,0.300000X1.475000*%
%ADD25R,1.475000X0.300000*%
%ADD26C,1.020000*%
G04 APERTURE END LIST*
D10*
X170321500Y-99728500D02*
X166421500Y-99728500D01*
X166421500Y-99728500D02*
X166421500Y-95818500D01*
X166421500Y-95818500D02*
X170321500Y-95818500D01*
X170321500Y-95818500D02*
X170321500Y-99728500D01*
G36*
X170321500Y-99728500D02*
G01*
X166421500Y-99728500D01*
X166421500Y-95818500D01*
X170321500Y-95818500D01*
X170321500Y-99728500D01*
G37*
X170321500Y-99728500D02*
X166421500Y-99728500D01*
X166421500Y-95818500D01*
X170321500Y-95818500D01*
X170321500Y-99728500D01*
X158176500Y-99718500D02*
X154276500Y-99718500D01*
X154276500Y-99718500D02*
X154276500Y-95808500D01*
X154276500Y-95808500D02*
X158176500Y-95808500D01*
X158176500Y-95808500D02*
X158176500Y-99718500D01*
G36*
X158176500Y-99718500D02*
G01*
X154276500Y-99718500D01*
X154276500Y-95808500D01*
X158176500Y-95808500D01*
X158176500Y-99718500D01*
G37*
X158176500Y-99718500D02*
X154276500Y-99718500D01*
X154276500Y-95808500D01*
X158176500Y-95808500D01*
X158176500Y-99718500D01*
X221370000Y-104880000D02*
X217470000Y-104880000D01*
X217470000Y-104880000D02*
X217470000Y-100970000D01*
X217470000Y-100970000D02*
X221370000Y-100970000D01*
X221370000Y-100970000D02*
X221370000Y-104880000D01*
G36*
X221370000Y-104880000D02*
G01*
X217470000Y-104880000D01*
X217470000Y-100970000D01*
X221370000Y-100970000D01*
X221370000Y-104880000D01*
G37*
X221370000Y-104880000D02*
X217470000Y-104880000D01*
X217470000Y-100970000D01*
X221370000Y-100970000D01*
X221370000Y-104880000D01*
X221300000Y-91360000D02*
X217400000Y-91360000D01*
X217400000Y-91360000D02*
X217400000Y-87450000D01*
X217400000Y-87450000D02*
X221300000Y-87450000D01*
X221300000Y-87450000D02*
X221300000Y-91360000D01*
G36*
X221300000Y-91360000D02*
G01*
X217400000Y-91360000D01*
X217400000Y-87450000D01*
X221300000Y-87450000D01*
X221300000Y-91360000D01*
G37*
X221300000Y-91360000D02*
X217400000Y-91360000D01*
X217400000Y-87450000D01*
X221300000Y-87450000D01*
X221300000Y-91360000D01*
D11*
%TO.C,JP1*%
X109320000Y-74670000D03*
D12*
X111860000Y-74670000D03*
%TD*%
D13*
%TO.C,U15*%
X155741500Y-97283500D03*
X156716500Y-96308500D03*
X157691500Y-97283500D03*
X154766500Y-99233500D03*
X157691500Y-98258500D03*
X156716500Y-98258500D03*
X156716500Y-99233500D03*
X155741500Y-96308500D03*
X154766500Y-97283500D03*
X154766500Y-96308500D03*
X156716500Y-97283500D03*
X155741500Y-99233500D03*
X155741500Y-98258500D03*
X157691500Y-99233500D03*
X157691500Y-96308500D03*
X154766500Y-98258500D03*
%TD*%
%TO.C,U13*%
X217933500Y-87981500D03*
X220858500Y-87981500D03*
X218908500Y-89931500D03*
X220858500Y-90906500D03*
X218908500Y-90906500D03*
X219883500Y-89931500D03*
X219883500Y-87981500D03*
X218908500Y-87981500D03*
X219883500Y-90906500D03*
X217933500Y-88956500D03*
X217933500Y-89931500D03*
X219883500Y-88956500D03*
X217933500Y-90906500D03*
X218908500Y-88956500D03*
X220858500Y-88956500D03*
X220858500Y-89931500D03*
%TD*%
%TO.C,U14*%
X220878500Y-104386500D03*
X220878500Y-103411500D03*
X219903500Y-103411500D03*
X217953500Y-101461500D03*
X218928500Y-102436500D03*
X218928500Y-101461500D03*
X217953500Y-104386500D03*
X220878500Y-102436500D03*
X217953500Y-103411500D03*
X217953500Y-102436500D03*
X218928500Y-104386500D03*
X220878500Y-101461500D03*
X219903500Y-104386500D03*
X219903500Y-101461500D03*
X219903500Y-102436500D03*
X218928500Y-103411500D03*
%TD*%
%TO.C,U12*%
X167880000Y-99225000D03*
X166905000Y-98250000D03*
X168855000Y-98250000D03*
X169830000Y-96300000D03*
X166905000Y-99225000D03*
X167880000Y-97275000D03*
X168855000Y-97275000D03*
X166905000Y-96300000D03*
X168855000Y-96300000D03*
X168855000Y-99225000D03*
X166905000Y-97275000D03*
X169830000Y-97275000D03*
X169830000Y-98250000D03*
X169830000Y-99225000D03*
X167880000Y-98250000D03*
X167880000Y-96300000D03*
%TD*%
D11*
%TO.C,J1*%
X240940000Y-93880000D03*
D12*
X238400000Y-93880000D03*
X235860000Y-93880000D03*
X233320000Y-93880000D03*
X230780000Y-93880000D03*
X228240000Y-93880000D03*
%TD*%
D14*
%TO.C,SW1*%
X227740000Y-72720000D03*
X221240000Y-72720000D03*
X227740000Y-77220000D03*
X221240000Y-77220000D03*
%TD*%
D15*
%TO.C,J2*%
X97877500Y-69925000D03*
X97877500Y-129995000D03*
D16*
X99677500Y-124090000D03*
D17*
X97137500Y-124090000D03*
X99677500Y-121550000D03*
X97137500Y-121550000D03*
X99677500Y-119010000D03*
X97137500Y-119010000D03*
X99677500Y-116470000D03*
X97137500Y-116470000D03*
X99677500Y-113930000D03*
X97137500Y-113930000D03*
X99677500Y-111390000D03*
X97137500Y-111390000D03*
X99677500Y-108850000D03*
X97137500Y-108850000D03*
X99677500Y-106310000D03*
X97137500Y-106310000D03*
X99677500Y-103770000D03*
X97137500Y-103770000D03*
X99677500Y-101230000D03*
X97137500Y-101230000D03*
X99677500Y-98690000D03*
X97137500Y-98690000D03*
X99677500Y-96150000D03*
X97137500Y-96150000D03*
X99677500Y-93610000D03*
X97137500Y-93610000D03*
X99677500Y-91070000D03*
X97137500Y-91070000D03*
X99677500Y-88530000D03*
X97137500Y-88530000D03*
X99677500Y-85990000D03*
X97137500Y-85990000D03*
X99677500Y-83450000D03*
X97137500Y-83450000D03*
X99677500Y-80910000D03*
X97137500Y-80910000D03*
X99677500Y-78370000D03*
X97137500Y-78370000D03*
X99677500Y-75830000D03*
X97137500Y-75830000D03*
%TD*%
D18*
%TO.C,J3*%
X135350000Y-81915000D03*
X133350000Y-81915000D03*
X131350000Y-81915000D03*
X129350000Y-81915000D03*
D19*
X137600000Y-81415000D03*
X127100000Y-81415000D03*
X137600000Y-76665000D03*
X127100000Y-76665000D03*
%TD*%
D18*
%TO.C,J4*%
X144850000Y-83750000D03*
X146850000Y-83750000D03*
X148850000Y-83750000D03*
X150850000Y-83750000D03*
X152850000Y-83750000D03*
X144850000Y-81750000D03*
X146850000Y-81750000D03*
X148850000Y-81750000D03*
X150850000Y-81750000D03*
X152850000Y-81750000D03*
D19*
X155100000Y-76500000D03*
X155100000Y-81250000D03*
X142600000Y-81250000D03*
X142600000Y-76500000D03*
%TD*%
D20*
%TO.C,C11*%
X242745000Y-73350000D03*
X241195000Y-73350000D03*
%TD*%
%TO.C,C10*%
X237245000Y-88810000D03*
X235695000Y-88810000D03*
%TD*%
D21*
%TO.C,C12*%
X246320000Y-85325000D03*
X246320000Y-83775000D03*
%TD*%
D22*
%TO.C,C13*%
X230790000Y-76785000D03*
X230790000Y-78335000D03*
%TD*%
%TO.C,C14*%
X230790000Y-83295000D03*
X230790000Y-84845000D03*
%TD*%
D23*
%TO.C,R24*%
X247645000Y-82310000D03*
X245995000Y-82310000D03*
%TD*%
D24*
%TO.C,IC1*%
X242220000Y-86798000D03*
X241720000Y-86798000D03*
X241220000Y-86798000D03*
X240720000Y-86798000D03*
X240220000Y-86798000D03*
X239720000Y-86798000D03*
X239220000Y-86798000D03*
X238720000Y-86798000D03*
X238220000Y-86798000D03*
X237720000Y-86798000D03*
X237220000Y-86798000D03*
X236720000Y-86798000D03*
X236220000Y-86798000D03*
X235720000Y-86798000D03*
X235220000Y-86798000D03*
X234720000Y-86798000D03*
D25*
X232732000Y-84810000D03*
X232732000Y-84310000D03*
X232732000Y-83810000D03*
X232732000Y-83310000D03*
X232732000Y-82810000D03*
X232732000Y-82310000D03*
X232732000Y-81810000D03*
X232732000Y-81310000D03*
X232732000Y-80810000D03*
X232732000Y-80310000D03*
X232732000Y-79810000D03*
X232732000Y-79310000D03*
X232732000Y-78810000D03*
X232732000Y-78310000D03*
X232732000Y-77810000D03*
X232732000Y-77310000D03*
D24*
X234720000Y-75322000D03*
X235220000Y-75322000D03*
X235720000Y-75322000D03*
X236220000Y-75322000D03*
X236720000Y-75322000D03*
X237220000Y-75322000D03*
X237720000Y-75322000D03*
X238220000Y-75322000D03*
X238720000Y-75322000D03*
X239220000Y-75322000D03*
X239720000Y-75322000D03*
X240220000Y-75322000D03*
X240720000Y-75322000D03*
X241220000Y-75322000D03*
X241720000Y-75322000D03*
X242220000Y-75322000D03*
D25*
X244208000Y-77310000D03*
X244208000Y-77810000D03*
X244208000Y-78310000D03*
X244208000Y-78810000D03*
X244208000Y-79310000D03*
X244208000Y-79810000D03*
X244208000Y-80310000D03*
X244208000Y-80810000D03*
X244208000Y-81310000D03*
X244208000Y-81810000D03*
X244208000Y-82310000D03*
X244208000Y-82810000D03*
X244208000Y-83310000D03*
X244208000Y-83810000D03*
X244208000Y-84310000D03*
X244208000Y-84810000D03*
%TD*%
D26*
%TO.C,U1*%
X181944800Y-90102600D03*
X180954200Y-92312400D03*
X180420800Y-94674600D03*
X182275000Y-96224000D03*
X180420800Y-97773400D03*
X181944800Y-99830800D03*
X181944800Y-102243800D03*
X184383200Y-87765800D03*
X184383200Y-90178800D03*
X184383200Y-92591800D03*
X184383200Y-95004800D03*
X184383200Y-97417800D03*
X184383200Y-99830800D03*
X184383200Y-102243800D03*
X184383200Y-104656800D03*
X186491400Y-86572000D03*
X186491400Y-88985000D03*
X186491400Y-91398000D03*
X186491400Y-93811000D03*
X186491400Y-96224000D03*
X186491400Y-98637000D03*
X186491400Y-101050000D03*
X186491400Y-103463000D03*
X186491400Y-105876000D03*
X188599600Y-85352800D03*
X188599600Y-87765800D03*
X188599600Y-90178800D03*
X188599600Y-92591800D03*
X188599600Y-95004800D03*
X188599600Y-97417800D03*
X188599600Y-99830800D03*
X188599600Y-102243800D03*
X188599600Y-104656800D03*
X188599600Y-107069800D03*
X190707800Y-84159000D03*
X190707800Y-86572000D03*
X190707800Y-88985000D03*
X190707800Y-91398000D03*
X190707800Y-93811000D03*
X190707800Y-96224000D03*
X190707800Y-98637000D03*
X190707800Y-101050000D03*
X190707800Y-103463000D03*
X190707800Y-105876000D03*
X190707800Y-108289000D03*
X192816000Y-85352800D03*
X192816000Y-87765800D03*
X192816000Y-90178800D03*
X192816000Y-92591800D03*
X192816000Y-95004800D03*
X192816000Y-97417800D03*
X192816000Y-99830800D03*
X192816000Y-102243800D03*
X192816000Y-104656800D03*
X192816000Y-107069800D03*
X194924200Y-84159000D03*
X194924200Y-86572000D03*
X194924200Y-88985000D03*
X194924200Y-91398000D03*
X194924200Y-93811000D03*
X194924200Y-96224000D03*
X194924200Y-98637000D03*
X194924200Y-101050000D03*
X194924200Y-103463000D03*
X194924200Y-105876000D03*
X194924200Y-108289000D03*
X197032400Y-85352800D03*
X197032400Y-87765800D03*
X197032400Y-90178800D03*
X197032400Y-92591800D03*
X197032400Y-95004800D03*
X197032400Y-97417800D03*
X197032400Y-99830800D03*
X197032400Y-102243800D03*
X197032400Y-104656800D03*
X197032400Y-107069800D03*
X199140600Y-86572000D03*
X199140600Y-88985000D03*
X199140600Y-91398000D03*
X199140600Y-93811000D03*
X199140600Y-96224000D03*
X199140600Y-98637000D03*
X199140600Y-101050000D03*
X199140600Y-103463000D03*
X199140600Y-105876000D03*
X201248800Y-87765800D03*
X201248800Y-90178800D03*
X201248800Y-92591800D03*
X201248800Y-95004800D03*
X201248800Y-97417800D03*
X201248800Y-99830800D03*
X201248800Y-102243800D03*
X201248800Y-104656800D03*
X203687200Y-90102600D03*
X204677800Y-92312400D03*
X205211200Y-94674600D03*
X203357000Y-96224000D03*
X205211200Y-97773400D03*
X203687200Y-99830800D03*
X203687200Y-102243800D03*
%TD*%
M02*
