M48
; DRILL file {KiCad (6.0.2)} date Tue Jun 14 20:32:30 2022
; FORMAT={-:-/ absolute / inch / decimal}
; #@! TF.CreationDate,2022-06-14T20:32:30+02:00
; #@! TF.GenerationSoftware,Kicad,Pcbnew,(6.0.2)
; #@! TF.FileFunction,Plated,1,4,PTH
FMAT,2
INCH
; #@! TA.AperFunction,Plated,PTH,ComponentDrill
T1C0.0096
; #@! TA.AperFunction,Plated,PTH,ViaDrill
T2C0.0098
; #@! TA.AperFunction,Plated,PTH,ViaDrill
T3C0.0157
; #@! TA.AperFunction,Plated,PTH,ComponentDrill
T4C0.0283
; #@! TA.AperFunction,Plated,PTH,ComponentDrill
T5C0.0315
; #@! TA.AperFunction,Plated,PTH,ComponentDrill
T6C0.0354
; #@! TA.AperFunction,Plated,PTH,ComponentDrill
T7C0.0394
; #@! TA.AperFunction,Plated,PTH,ComponentDrill
T8C0.0433
%
G90
G05
T1
X6.0932Y-3.7917
X6.0932Y-3.8301
X6.0932Y-3.8684
X6.0932Y-3.9068
X6.1316Y-3.7917
X6.1316Y-3.8301
X6.1316Y-3.8684
X6.1316Y-3.9068
X6.1699Y-3.7917
X6.1699Y-3.8301
X6.1699Y-3.8684
X6.1699Y-3.9068
X6.2083Y-3.7917
X6.2083Y-3.8301
X6.2083Y-3.8684
X6.2083Y-3.9068
X6.5711Y-3.7913
X6.5711Y-3.8297
X6.5711Y-3.8681
X6.5711Y-3.9065
X6.6094Y-3.7913
X6.6094Y-3.8297
X6.6094Y-3.8681
X6.6094Y-3.9065
X6.6478Y-3.7913
X6.6478Y-3.8297
X6.6478Y-3.8681
X6.6478Y-3.9065
X6.6862Y-3.7913
X6.6862Y-3.8297
X6.6862Y-3.8681
X6.6862Y-3.9065
X8.5801Y-3.4638
X8.5801Y-3.5022
X8.5801Y-3.5406
X8.5801Y-3.579
X8.5808Y-3.9945
X8.5808Y-4.0329
X8.5808Y-4.0713
X8.5808Y-4.1097
X8.6184Y-3.4638
X8.6184Y-3.5022
X8.6184Y-3.5406
X8.6184Y-3.579
X8.6192Y-3.9945
X8.6192Y-4.0329
X8.6192Y-4.0713
X8.6192Y-4.1097
X8.6568Y-3.4638
X8.6568Y-3.5022
X8.6568Y-3.5406
X8.6568Y-3.579
X8.6576Y-3.9945
X8.6576Y-4.0329
X8.6576Y-4.0713
X8.6576Y-4.1097
X8.6952Y-3.4638
X8.6952Y-3.5022
X8.6952Y-3.5406
X8.6952Y-3.579
X8.696Y-3.9945
X8.696Y-4.0329
X8.696Y-4.0713
X8.696Y-4.1097
T2
X4.0055Y-4.5189
X4.1512Y-4.6173
X4.1693Y-4.5993
X4.1976Y-4.1634
X4.2756Y-4.2335
X4.3063Y-3.0398
X4.4653Y-4.6067
X4.4657Y-4.5811
X4.5386Y-3.5012
X4.5549Y-3.4811
X4.5718Y-3.4619
X4.5892Y-3.4432
X4.6843Y-4.0484
X4.7173Y-4.5626
X4.7591Y-4.9143
X4.7594Y-4.9398
X4.7683Y-3.0809
X4.8008Y-4.0488
X4.802Y-3.8835
X4.8154Y-3.1268
X4.8339Y-4.5626
X4.9075Y-4.2256
X4.9366Y-3.9724
X4.9398Y-4.3071
X4.9488Y-4.3551
X4.9583Y-4.2894
X5.0819Y-4.0535
X5.1036Y-4.0717
X5.1291Y-4.0705
X5.1504Y-4.0535
X5.2189Y-4.2724
X5.2217Y-4.1429
X5.285Y-3.8098
X5.3378Y-4.137
X5.4091Y-5.0077
X5.5055Y-4.2484
X5.5528Y-4.213
X5.5535Y-4.1429
X5.5618Y-3.885
X5.6685Y-4.1429
X5.6693Y-3.565
X5.6961Y-5.0077
X5.7173Y-4.3559
X5.7352Y-4.3947
X5.754Y-4.3772
X5.7665Y-3.9445
X5.7717Y-3.1189
X5.8303Y-3.1232
X5.8602Y-3.1368
X6.2261Y-3.1802
X6.2799Y-3.6406
X6.2815Y-2.8319
X6.3031Y-3.5245
X6.3031Y-3.7035
X6.3035Y-2.8535
X6.3248Y-3.5461
X6.3248Y-3.6878
X6.3248Y-2.8751
X6.3464Y-3.5677
X6.3464Y-3.7035
X6.368Y-3.6874
X6.3736Y-2.8537
X6.4008Y-3.5244
X6.4008Y-3.915
X6.4146Y-2.8319
X6.4776Y-2.9126
X6.5614Y-3.3677
X6.7085Y-3.2102
X6.7087Y-3.1453
X6.7988Y-3.0106
X6.8244Y-3.0106
X6.8803Y-3.3748
X6.9476Y-3.0106
X6.9557Y-3.3
X6.9731Y-3.0109
X6.9812Y-3.3
X6.9941Y-3.3677
X7.0359Y-4.8468
X7.1351Y-4.8172
X7.1775Y-3.1807
X7.2929Y-3.8118
X7.2969Y-4.9932
X7.3213Y-3.3272
X7.3232Y-3.3756
X7.3277Y-4.814
X7.3391Y-3.3539
X7.3394Y-3.3055
X7.411Y-4.8251
X7.478Y-2.9937
X7.5161Y-3.1988
X7.5442Y-3.1963
X7.6154Y-3.0437
X7.6268Y-3.6925
X7.635Y-3.7398
X7.7059Y-3.8374
X7.7224Y-3.8862
X7.7777Y-4.7716
X7.7857Y-4.7959
X7.7864Y-3.2305
X7.7921Y-4.822
X7.8756Y-3.1748
X7.9012Y-3.1748
X7.9303Y-4.7138
X7.9949Y-4.687
X8.0059Y-3.6685
X8.039Y-3.6756
X8.0874Y-3.6673
X8.1469Y-3.7197
X8.2185Y-4.728
X8.672Y-3.8154
X8.6988Y-3.8268
X8.7035Y-3.7791
X8.7256Y-3.8224
X8.8047Y-3.4264
X8.8421Y-3.4906
X8.8646Y-3.4661
X8.8894Y-3.4795
X8.9134Y-3.4193
X8.9172Y-3.3928
X8.9353Y-3.4381
X8.9374Y-3.6339
X8.9867Y-3.9252
X9.0134Y-3.1383
X9.0134Y-3.1909
X9.0134Y-3.248
X9.0201Y-3.8911
X9.0406Y-3.0341
X9.0406Y-3.0734
X9.0406Y-3.2906
X9.0409Y-3.323
X9.0815Y-3.1913
X9.0823Y-3.1524
X9.1614Y-3.3779
X9.1886Y-3.0211
X9.2144Y-3.2565
X9.2153Y-3.0657
X9.2183Y-2.9496
X9.2346Y-3.1008
X9.2425Y-3.1638
X9.2457Y-2.8311
X9.2586Y-3.3126
X9.2586Y-3.3538
X9.2591Y-3.2094
X9.2803Y-3.1383
X9.2813Y-3.1855
X9.2816Y-3.3239
X9.2843Y-3.2807
X9.2944Y-3.5413
X9.3122Y-3.0669
X9.3173Y-3.3528
X9.3293Y-3.5421
X9.3339Y-3.0453
X9.3456Y-3.1636
X9.3555Y-3.0669
X9.3602Y-3.5425
X9.3657Y-4.039
X9.3733Y-3.1549
X9.3772Y-3.0453
X9.3827Y-3.2547
X9.3933Y-3.2276
X9.3945Y-3.1693
X9.3945Y-3.2815
X9.3988Y-3.0665
X9.4223Y-3.3482
X9.4366Y-3.3694
X9.4382Y-3.039
X9.4593Y-3.535
X9.4673Y-3.3697
X9.4849Y-3.535
X9.4909Y-3.3535
X9.4957Y-3.039
X9.5065Y-2.8423
X9.5104Y-3.535
X9.5165Y-3.3535
X9.5421Y-3.3536
X9.5459Y-2.8423
X9.5677Y-3.0638
X9.6602Y-3.1642
X9.6815Y-3.1496
X9.6991Y-3.1311
X9.7035Y-3.0653
X9.713Y-3.4547
X9.7177Y-3.1134
X9.7307Y-3.5941
X9.7435Y-3.3085
X9.7435Y-3.3478
X9.7539Y-3.5705
X9.7752Y-3.6164
T3
X4.398Y-4.7744
X4.398Y-4.865
X4.4098Y-4.4594
X4.4728Y-4.865
X4.4787Y-4.4594
X4.5496Y-4.4594
X4.5496Y-4.552
X4.6264Y-4.4594
X4.6264Y-4.552
X4.6756Y-4.7744
X4.6756Y-4.863
X4.7445Y-4.7744
X4.7445Y-4.863
X4.8094Y-4.7744
X4.8094Y-4.863
X4.8744Y-4.7744
X4.8744Y-4.863
X4.9472Y-4.7744
X4.9472Y-4.863
X5.0181Y-4.7744
X5.0181Y-4.863
X5.0555Y-4.1701
X5.0555Y-4.2587
X5.0575Y-4.365
X5.0575Y-4.4535
X5.1264Y-4.1701
X5.1264Y-4.2587
X5.1264Y-4.365
X5.1264Y-4.4535
X5.1913Y-4.365
X5.1913Y-4.4535
X5.2504Y-3.5461
X5.272Y-4.365
X5.272Y-4.4535
X5.285Y-4.7673
X5.337Y-3.5461
X5.3413Y-4.7796
X5.3823Y-4.1701
X5.3882Y-4.657
X5.4059Y-4.365
X5.4197Y-3.5461
X5.4472Y-4.1701
X5.4689Y-3.9339
X5.4689Y-4.0185
X5.4965Y-3.5461
X5.5555Y-4.3886
X5.713Y-4.172
X5.778Y-4.657
X5.7807Y-4.8189
X5.7858Y-4.172
X5.835Y-3.7016
X5.835Y-3.8079
X5.9118Y-3.6248
X5.9118Y-3.7016
X5.9118Y-3.8079
X5.9492Y-4.5776
X6.0142Y-4.5776
X6.087Y-4.5776
X6.1618Y-4.5776
X6.2386Y-4.5776
X6.339Y-3.9142
X6.4008Y-3.0894
X6.4157Y-4.8728
X6.4591Y-3.548
X6.4591Y-3.6996
X6.4984Y-4.8728
X6.5102Y-2.9969
X6.5984Y-3.2079
X6.5988Y-3.2467
X6.6244Y-2.8945
X6.6244Y-2.9969
X6.7268Y-2.8945
X6.7268Y-2.9969
X6.7799Y-4.8728
X6.8665Y-4.8728
X6.8693Y-4.5819
X6.8843Y-3.0146
X6.9087Y-4.5823
X6.9409Y-3.089
X6.9481Y-4.5823
X6.9874Y-4.5823
X7.0272Y-4.5823
X7.028Y-3.0795
X7.0819Y-3.2531
X7.0823Y-3.2998
X7.1047Y-3.0047
X7.1283Y-4.6563
X7.1697Y-3.0657
X7.2051Y-4.6563
X7.2894Y-2.9014
X7.362Y-4.6656
X7.4085Y-4.6656
X7.5732Y-4.7728
X7.7169Y-4.7724
X7.7669Y-4.6134
X7.8118Y-3.0925
X7.865Y-4.8256
X7.865Y-4.8768
X7.9079Y-2.9575
X8.0063Y-2.9575
X8.0346Y-4.6091
X8.1091Y-4.6098
X8.1264Y-3.048
X8.1283Y-2.9575
X8.1465Y-4.785
X8.1984Y-4.6094
X8.2425Y-4.9319
X8.2524Y-2.9575
X8.2524Y-3.048
X8.2524Y-3.1327
X8.2736Y-4.6091
X8.3193Y-4.9319
X8.3902Y-3.048
X8.3902Y-3.1287
X8.3921Y-4.9319
X8.3941Y-4.8512
X8.3976Y-3.8114
X8.3984Y-3.7287
X8.402Y-3.4094
X8.5535Y-3.8118
X8.8343Y-4.6504
X8.9433Y-3.3118
X8.9551Y-3.4969
X8.9551Y-3.5697
X9.0248Y-4.002
X9.074Y-4.002
X9.085Y-3.4575
X9.1146Y-2.8748
X9.1697Y-3.8748
X9.1697Y-3.9614
X9.1697Y-4.0402
X9.1697Y-4.1051
X9.2819Y-2.8748
X9.4236Y-2.8748
X9.4575Y-4.0256
X9.5516Y-4.7969
X9.5516Y-4.8469
X9.5516Y-4.8969
X9.6016Y-4.7969
X9.6016Y-4.8469
X9.6016Y-4.8969
X9.6244Y-2.9614
X9.6516Y-4.7969
X9.6516Y-4.8469
X9.6516Y-4.8969
X9.7346Y-3.4122
T4
X7.1032Y-3.7273
X7.1032Y-3.8493
X7.1242Y-3.6343
X7.1632Y-3.5473
X7.1632Y-3.9303
X7.1632Y-4.0253
X7.1762Y-3.7883
X7.2592Y-3.4553
X7.2592Y-3.5503
X7.2592Y-3.6453
X7.2592Y-3.7403
X7.2592Y-3.8353
X7.2592Y-3.9303
X7.2592Y-4.0253
X7.2592Y-4.1203
X7.3422Y-3.4083
X7.3422Y-3.5033
X7.3422Y-3.5983
X7.3422Y-3.6933
X7.3422Y-3.7883
X7.3422Y-3.8833
X7.3422Y-3.9783
X7.3422Y-4.0733
X7.3422Y-4.1683
X7.4252Y-3.3603
X7.4252Y-3.4553
X7.4252Y-3.5503
X7.4252Y-3.6453
X7.4252Y-3.7403
X7.4252Y-3.8353
X7.4252Y-3.9303
X7.4252Y-4.0253
X7.4252Y-4.1203
X7.4252Y-4.2153
X7.5082Y-3.3133
X7.5082Y-3.4083
X7.5082Y-3.5033
X7.5082Y-3.5983
X7.5082Y-3.6933
X7.5082Y-3.7883
X7.5082Y-3.8833
X7.5082Y-3.9783
X7.5082Y-4.0733
X7.5082Y-4.1683
X7.5082Y-4.2633
X7.5912Y-3.3603
X7.5912Y-3.4553
X7.5912Y-3.5503
X7.5912Y-3.6453
X7.5912Y-3.7403
X7.5912Y-3.8353
X7.5912Y-3.9303
X7.5912Y-4.0253
X7.5912Y-4.1203
X7.5912Y-4.2153
X7.6742Y-3.3133
X7.6742Y-3.4083
X7.6742Y-3.5033
X7.6742Y-3.5983
X7.6742Y-3.6933
X7.6742Y-3.7883
X7.6742Y-3.8833
X7.6742Y-3.9783
X7.6742Y-4.0733
X7.6742Y-4.1683
X7.6742Y-4.2633
X7.7572Y-3.3603
X7.7572Y-3.4553
X7.7572Y-3.5503
X7.7572Y-3.6453
X7.7572Y-3.7403
X7.7572Y-3.8353
X7.7572Y-3.9303
X7.7572Y-4.0253
X7.7572Y-4.1203
X7.7572Y-4.2153
X7.8402Y-3.4083
X7.8402Y-3.5033
X7.8402Y-3.5983
X7.8402Y-3.6933
X7.8402Y-3.7883
X7.8402Y-3.8833
X7.8402Y-3.9783
X7.8402Y-4.0733
X7.8402Y-4.1683
X7.9232Y-3.4553
X7.9232Y-3.5503
X7.9232Y-3.6453
X7.9232Y-3.7403
X7.9232Y-3.8353
X7.9232Y-3.9303
X7.9232Y-4.0253
X7.9232Y-4.1203
X8.0062Y-3.7883
X8.0192Y-3.5473
X8.0192Y-3.9303
X8.0192Y-4.0253
X8.0582Y-3.6343
X8.0792Y-3.7273
X8.0792Y-3.8493
T5
X5.0925Y-3.225
X5.1713Y-3.225
X5.25Y-3.225
X5.3287Y-3.225
X5.7028Y-3.2185
X5.7028Y-3.2972
X5.7815Y-3.2185
X5.7815Y-3.2972
X5.8602Y-3.2185
X5.8602Y-3.2972
X5.939Y-3.2185
X5.939Y-3.2972
X6.0177Y-3.2185
X6.0177Y-3.2972
T6
X5.0039Y-3.0183
X5.0039Y-3.2053
X5.4173Y-3.0183
X5.4173Y-3.2053
X5.6142Y-3.0118
X5.6142Y-3.1988
X6.1063Y-3.0118
X6.1063Y-3.1988
T7
X3.8243Y-2.9854
X3.8243Y-3.0854
X3.8243Y-3.1854
X3.8243Y-3.2854
X3.8243Y-3.3854
X3.8243Y-3.4854
X3.8243Y-3.5854
X3.8243Y-3.6854
X3.8243Y-3.7854
X3.8243Y-3.8854
X3.8243Y-3.9854
X3.8243Y-4.0854
X3.8243Y-4.1854
X3.8243Y-4.2854
X3.8243Y-4.3854
X3.8243Y-4.4854
X3.8243Y-4.5854
X3.8243Y-4.6854
X3.8243Y-4.7854
X3.8243Y-4.8854
X3.9243Y-2.9854
X3.9243Y-3.0854
X3.9243Y-3.1854
X3.9243Y-3.2854
X3.9243Y-3.3854
X3.9243Y-3.4854
X3.9243Y-3.5854
X3.9243Y-3.6854
X3.9243Y-3.7854
X3.9243Y-3.8854
X3.9243Y-3.9854
X3.9243Y-4.0854
X3.9243Y-4.1854
X3.9243Y-4.2854
X3.9243Y-4.3854
X3.9243Y-4.4854
X3.9243Y-4.5854
X3.9243Y-4.6854
X3.9243Y-4.7854
X3.9243Y-4.8854
X4.3039Y-2.9398
X4.4039Y-2.9398
X8.9858Y-3.6961
X9.0858Y-3.6961
X9.1858Y-3.6961
X9.2858Y-3.6961
X9.3858Y-3.6961
X9.4858Y-3.6961
T8
X8.7102Y-2.863
X8.7102Y-3.0402
X8.9661Y-2.863
X8.9661Y-3.0402
T0
M30
